<svg width="24" height="24" viewBox="0 0 24 24" fill="none" xmlns="http://www.w3.org/2000/svg"><path d="M18.667 16.578c-.845 0-1.6.333-2.178.855l-7.922-4.61c.055-.256.1-.512.1-.779 0-.266-.045-.522-.1-.777L16.4 6.7c.6.556 1.389.9 2.267.9A3.329 3.329 0 0 0 22 4.267 3.329 3.329 0 0 0 18.667.933a3.329 3.329 0 0 0-3.334 3.334c0 .266.045.522.1.777L7.6 9.611c-.6-.555-1.389-.9-2.267-.9A3.329 3.329 0 0 0 2 12.044a3.329 3.329 0 0 0 3.333 3.334 3.32 3.32 0 0 0 2.267-.9l7.911 4.622a3.138 3.138 0 0 0-.089.722 3.248 3.248 0 0 0 3.245 3.245 3.248 3.248 0 0 0 3.244-3.245 3.248 3.248 0 0 0-3.244-3.244Z" fill="#fff"/></svg>